<svg id="Layer_1" data-name="Layer 1" xmlns="http://www.w3.org/2000/svg" viewBox="0 0 512 512"><title>cloud-text-flat</title><g id="cloud-text"><path d="M391.64,168.6c-7.88,0-17.59,3.18-26.17,6q-2.6.87-5,1.62C339.59,121.85,293.41,87,241.68,87A133,133,0,0,0,109.32,207.32c-2.89-.26-5.52-.39-8.08-.39A101.11,101.11,0,0,0,50.5,395.57a72.2,72.2,0,0,1-.92-11.27,68.76,68.76,0,0,1,4-23.52A71,71,0,0,1,101.25,237a72,72,0,0,1,9.42.73l26.86,3.55L139,214.25a102.8,102.8,0,0,1,102.67-97.13c48.82,0,80.09,39.61,92,73.53l7.67,21.79,22.36-5.84c3.49-.91,7.19-2.11,11.12-3.4,4.45-1.45,13.71-4.47,16.78-4.47a90.19,90.19,0,0,1,64.18,153.62c3.88,7.43,6.61,16.84,6.61,28.83,0,1.73-.13,3.43-.24,5.13a120.24,120.24,0,0,0-70.54-217.7Z" fill="#90c8ea"/><path d="M114.81,356.37a39.58,39.58,0,0,1,15.41,3L134,344.81c-3.25-1.69-10.47-3.61-20-3.61-24.57,0-44.31,15.41-44.31,43.1,0,23.12,14.45,40.58,42.5,40.58,9.87,0,17.46-1.8,20.83-3.49l-2.76-14.33a45.74,45.74,0,0,1-15.29,2.66c-16.37,0-26-10.23-26-26.49C88.92,365.16,100.25,356.37,114.81,356.37Z" fill="#90c8ea"/><polygon points="163.49 342.52 145.07 342.52 145.07 423.67 195.75 423.67 195.75 408.26 163.49 408.26 163.49 342.52" fill="#90c8ea"/><path d="M237.81,341.2c-24,0-39.49,18.18-39.49,42.5,0,23.12,14.08,41.29,38.17,41.29,23.72,0,39.85-16.13,39.85-42.75C276.34,359.86,262.74,341.2,237.81,341.2Zm-.36,69.23c-12.28,0-19.74-11.2-19.74-27.09s7.23-27.57,19.63-27.57c12.64,0,19.63,12.52,19.63,27.09C257,398.63,249.85,410.43,237.45,410.43Z" fill="#90c8ea"/><path d="M336.35,389.24c0,14.32-5.3,21.07-14.93,21.07-9.39,0-14.69-7.11-14.69-21.07V342.53H288.31v45.26c0,25.89,12,37.21,32.5,37.21,21.2,0,33.83-11.92,33.83-37V342.53H336.35Z" fill="#90c8ea"/><path d="M428.62,350.59c-7.82-5.9-17.81-8.68-33.23-8.68a164.48,164.48,0,0,0-24.8,1.69v79.71a157.47,157.47,0,0,0,20.82,1.21c15.9,0,28.9-3.37,37.45-10.47,7.82-6.63,13.48-17.34,13.48-32.87C442.34,366.84,437,356.85,428.62,350.59Zm-33.23,59.6a33.61,33.61,0,0,1-6.38-.36v-53.1a38,38,0,0,1,8.3-.73c15.77,0,25.65,8.91,25.53,25.76C422.84,401.16,412,410.31,395.39,410.19Z" fill="#90c8ea"/></g></svg>